<mxfile host="app.diagrams.net" modified="2021-04-14T14:53:58.127Z" agent="5.0 (Windows NT 10.0; Win64; x64) AppleWebKit/537.36 (KHTML, like Gecko) Chrome/89.0.4389.114 Safari/537.36" etag="r7BdaYkM-0tLToty3LxB" version="14.6.0" type="github">
  <diagram name="Page-1" id="13e1069c-82ec-6db2-03f1-153e76fe0fe0">
    <mxGraphModel dx="782" dy="469" grid="1" gridSize="10" guides="1" tooltips="1" connect="1" arrows="1" fold="1" page="1" pageScale="1" pageWidth="1100" pageHeight="850" background="#ffffff" math="0" shadow="0">
      <root>
        <mxCell id="0" />
        <mxCell id="1" parent="0" />
        <mxCell id="7baba1c4bc27f4b0-2" value="Hệ thống" style="shape=umlLifeline;perimeter=lifelinePerimeter;whiteSpace=wrap;html=1;container=1;collapsible=0;recursiveResize=0;outlineConnect=0;rounded=1;shadow=0;comic=0;labelBackgroundColor=none;strokeWidth=1;fontFamily=Verdana;fontSize=12;align=center;" parent="1" vertex="1">
          <mxGeometry x="240" y="80" width="100" height="580" as="geometry" />
        </mxCell>
        <mxCell id="7baba1c4bc27f4b0-10" value="" style="html=1;points=[];perimeter=orthogonalPerimeter;rounded=0;shadow=0;comic=0;labelBackgroundColor=none;strokeWidth=1;fontFamily=Verdana;fontSize=12;align=center;" parent="7baba1c4bc27f4b0-2" vertex="1">
          <mxGeometry x="45" y="150" width="10" height="50" as="geometry" />
        </mxCell>
        <mxCell id="kBKtPI8fQ7mv7sNT-TML-8" value="" style="endArrow=classic;html=1;" parent="7baba1c4bc27f4b0-2" target="7baba1c4bc27f4b0-2" edge="1">
          <mxGeometry width="50" height="50" relative="1" as="geometry">
            <mxPoint x="50" y="210" as="sourcePoint" />
            <mxPoint x="100" y="160" as="targetPoint" />
          </mxGeometry>
        </mxCell>
        <mxCell id="kBKtPI8fQ7mv7sNT-TML-14" value="" style="html=1;points=[];perimeter=orthogonalPerimeter;rounded=0;shadow=0;comic=0;labelBackgroundColor=none;strokeWidth=1;fontFamily=Verdana;fontSize=12;align=center;" parent="7baba1c4bc27f4b0-2" vertex="1">
          <mxGeometry x="45" y="250" width="10" height="50" as="geometry" />
        </mxCell>
        <mxCell id="7baba1c4bc27f4b0-3" value="tài khoản" style="shape=umlLifeline;perimeter=lifelinePerimeter;whiteSpace=wrap;html=1;container=1;collapsible=0;recursiveResize=0;outlineConnect=0;rounded=1;shadow=0;comic=0;labelBackgroundColor=none;strokeWidth=1;fontFamily=Verdana;fontSize=12;align=center;" parent="1" vertex="1">
          <mxGeometry x="400" y="80" width="130" height="580" as="geometry" />
        </mxCell>
        <mxCell id="7baba1c4bc27f4b0-13" value="" style="html=1;points=[];perimeter=orthogonalPerimeter;rounded=0;shadow=0;comic=0;labelBackgroundColor=none;strokeWidth=1;fontFamily=Verdana;fontSize=12;align=center;" parent="7baba1c4bc27f4b0-3" vertex="1">
          <mxGeometry x="60" y="350" width="10" height="50" as="geometry" />
        </mxCell>
        <mxCell id="kBKtPI8fQ7mv7sNT-TML-28" value="Kiểm tra tk, mk" style="text;html=1;strokeColor=none;fillColor=none;align=center;verticalAlign=middle;whiteSpace=wrap;rounded=0;" parent="7baba1c4bc27f4b0-3" vertex="1">
          <mxGeometry x="70" y="290" width="60" height="20" as="geometry" />
        </mxCell>
        <mxCell id="kBKtPI8fQ7mv7sNT-TML-29" value="" style="endArrow=classic;html=1;" parent="7baba1c4bc27f4b0-3" target="7baba1c4bc27f4b0-2" edge="1">
          <mxGeometry width="50" height="50" relative="1" as="geometry">
            <mxPoint x="60" y="400" as="sourcePoint" />
            <mxPoint x="40" y="340" as="targetPoint" />
          </mxGeometry>
        </mxCell>
        <mxCell id="7baba1c4bc27f4b0-8" value="Người dùng" style="shape=umlLifeline;perimeter=lifelinePerimeter;whiteSpace=wrap;html=1;container=1;collapsible=0;recursiveResize=0;outlineConnect=0;rounded=1;shadow=0;comic=0;labelBackgroundColor=none;strokeWidth=1;fontFamily=Verdana;fontSize=12;align=center;" parent="1" vertex="1">
          <mxGeometry x="40" y="80" width="170" height="580" as="geometry" />
        </mxCell>
        <mxCell id="7baba1c4bc27f4b0-9" value="" style="html=1;points=[];perimeter=orthogonalPerimeter;rounded=0;shadow=0;comic=0;labelBackgroundColor=none;strokeWidth=1;fontFamily=Verdana;fontSize=12;align=center;" parent="7baba1c4bc27f4b0-8" vertex="1">
          <mxGeometry x="75" y="200" width="10" height="50" as="geometry" />
        </mxCell>
        <mxCell id="kBKtPI8fQ7mv7sNT-TML-12" value="" style="endArrow=none;dashed=1;html=1;dashPattern=1 3;strokeWidth=2;" parent="7baba1c4bc27f4b0-8" source="7baba1c4bc27f4b0-8" edge="1">
          <mxGeometry width="50" height="50" relative="1" as="geometry">
            <mxPoint x="20" y="150" as="sourcePoint" />
            <mxPoint x="70" y="100" as="targetPoint" />
          </mxGeometry>
        </mxCell>
        <mxCell id="kBKtPI8fQ7mv7sNT-TML-16" value="" style="endArrow=classic;html=1;" parent="7baba1c4bc27f4b0-8" target="7baba1c4bc27f4b0-2" edge="1">
          <mxGeometry width="50" height="50" relative="1" as="geometry">
            <mxPoint x="80" y="150" as="sourcePoint" />
            <mxPoint x="100" y="100" as="targetPoint" />
          </mxGeometry>
        </mxCell>
        <mxCell id="kBKtPI8fQ7mv7sNT-TML-32" value="Trả về thông báo" style="text;html=1;strokeColor=none;fillColor=none;align=center;verticalAlign=middle;whiteSpace=wrap;rounded=0;" parent="7baba1c4bc27f4b0-8" vertex="1">
          <mxGeometry x="130" y="420" width="40" height="20" as="geometry" />
        </mxCell>
        <mxCell id="7baba1c4bc27f4b0-45" value="Note" style="shape=note;whiteSpace=wrap;html=1;size=14;verticalAlign=top;align=left;spacingTop=-6;rounded=0;shadow=0;comic=0;labelBackgroundColor=none;strokeWidth=1;fontFamily=Verdana;fontSize=12" parent="1" vertex="1">
          <mxGeometry x="820" y="30" width="100" height="35" as="geometry" />
        </mxCell>
        <mxCell id="7baba1c4bc27f4b0-46" value="Note" style="shape=note;whiteSpace=wrap;html=1;size=14;verticalAlign=top;align=left;spacingTop=-6;rounded=0;shadow=0;comic=0;labelBackgroundColor=none;strokeWidth=1;fontFamily=Verdana;fontSize=12" parent="1" vertex="1">
          <mxGeometry x="960" y="30" width="100" height="35" as="geometry" />
        </mxCell>
        <mxCell id="kBKtPI8fQ7mv7sNT-TML-9" value="" style="edgeStyle=orthogonalEdgeStyle;rounded=0;orthogonalLoop=1;jettySize=auto;html=1;" parent="1" source="7baba1c4bc27f4b0-10" target="7baba1c4bc27f4b0-8" edge="1">
          <mxGeometry relative="1" as="geometry">
            <Array as="points">
              <mxPoint x="220" y="280" />
              <mxPoint x="220" y="280" />
            </Array>
          </mxGeometry>
        </mxCell>
        <mxCell id="kBKtPI8fQ7mv7sNT-TML-10" value="Yêu cầu nhập&lt;br&gt;tài khoản mật khẩu&lt;br&gt;" style="text;html=1;align=center;verticalAlign=middle;resizable=0;points=[];autosize=1;strokeColor=none;" parent="1" vertex="1">
          <mxGeometry x="160" y="240" width="120" height="30" as="geometry" />
        </mxCell>
        <mxCell id="kBKtPI8fQ7mv7sNT-TML-18" value="Yêu cầu đăng nhập" style="text;html=1;strokeColor=none;fillColor=none;align=center;verticalAlign=middle;whiteSpace=wrap;rounded=0;" parent="1" vertex="1">
          <mxGeometry x="175" y="190" width="75" height="20" as="geometry" />
        </mxCell>
        <mxCell id="kBKtPI8fQ7mv7sNT-TML-19" value="" style="endArrow=classic;html=1;" parent="1" source="7baba1c4bc27f4b0-8" target="7baba1c4bc27f4b0-2" edge="1">
          <mxGeometry width="50" height="50" relative="1" as="geometry">
            <mxPoint x="150" y="380" as="sourcePoint" />
            <mxPoint x="200" y="330" as="targetPoint" />
            <Array as="points">
              <mxPoint x="220" y="330" />
            </Array>
          </mxGeometry>
        </mxCell>
        <mxCell id="kBKtPI8fQ7mv7sNT-TML-21" value="Nhập tk, mk" style="text;html=1;strokeColor=none;fillColor=none;align=center;verticalAlign=middle;whiteSpace=wrap;rounded=0;" parent="1" vertex="1">
          <mxGeometry x="170" y="295" width="70" height="20" as="geometry" />
        </mxCell>
        <mxCell id="kBKtPI8fQ7mv7sNT-TML-24" value="" style="endArrow=classic;html=1;" parent="1" source="7baba1c4bc27f4b0-2" target="7baba1c4bc27f4b0-3" edge="1">
          <mxGeometry width="50" height="50" relative="1" as="geometry">
            <mxPoint x="290" y="430" as="sourcePoint" />
            <mxPoint x="340" y="380" as="targetPoint" />
            <Array as="points">
              <mxPoint x="370" y="380" />
            </Array>
          </mxGeometry>
        </mxCell>
        <mxCell id="kBKtPI8fQ7mv7sNT-TML-25" value="Gửi tk, mk" style="text;html=1;strokeColor=none;fillColor=none;align=center;verticalAlign=middle;whiteSpace=wrap;rounded=0;" parent="1" vertex="1">
          <mxGeometry x="340" y="350" width="60" height="20" as="geometry" />
        </mxCell>
        <mxCell id="kBKtPI8fQ7mv7sNT-TML-27" value="" style="endArrow=classic;html=1;" parent="1" source="7baba1c4bc27f4b0-3" target="7baba1c4bc27f4b0-3" edge="1">
          <mxGeometry width="50" height="50" relative="1" as="geometry">
            <mxPoint x="450" y="420" as="sourcePoint" />
            <mxPoint x="510" y="379" as="targetPoint" />
            <Array as="points">
              <mxPoint x="510" y="400" />
              <mxPoint x="510" y="430" />
            </Array>
          </mxGeometry>
        </mxCell>
        <mxCell id="kBKtPI8fQ7mv7sNT-TML-30" value="trả về kết quả" style="text;html=1;strokeColor=none;fillColor=none;align=center;verticalAlign=middle;whiteSpace=wrap;rounded=0;" parent="1" vertex="1">
          <mxGeometry x="350" y="450" width="80" height="20" as="geometry" />
        </mxCell>
        <mxCell id="kBKtPI8fQ7mv7sNT-TML-31" value="" style="endArrow=classic;html=1;" parent="1" source="7baba1c4bc27f4b0-2" target="7baba1c4bc27f4b0-8" edge="1">
          <mxGeometry width="50" height="50" relative="1" as="geometry">
            <mxPoint x="220" y="490" as="sourcePoint" />
            <mxPoint x="270" y="440" as="targetPoint" />
            <Array as="points">
              <mxPoint x="200" y="530" />
            </Array>
          </mxGeometry>
        </mxCell>
      </root>
    </mxGraphModel>
  </diagram>
</mxfile>
